<svg width="512" height="512" viewBox="0 0 512 512" fill="none" xmlns="http://www.w3.org/2000/svg">
  <rect width="512" height="512" rx="96" fill="#339af0"/>
  <g transform="translate(80, 80)">
    <path d="M176 88C203.062 88 225.812 99.625 241.75 118.375C257.688 137.125 264 162.938 256 186.875L224 286.75C222.5 291.5 219 295.375 214.5 297.875C210 300.375 204.75 301.625 199.5 301.625H152.5C147.25 301.625 142 300.375 137.5 297.875C133 295.375 129.5 291.5 128 286.75L96 186.875C88 162.938 94.3125 137.125 110.25 118.375C126.188 99.625 148.938 88 176 88Z" fill="white"/>
    <path d="M176 132C165.5 132 156.25 136.5 150.125 144C143.875 151.5 141.5 161.75 145.25 171.25L177.25 271.125C177.75 272.5 178.75 273.5 180 273.5H172C173.25 273.5 174.25 272.5 174.75 271.125L206.75 171.25C210.5 161.75 208.125 151.5 201.875 144C195.75 136.5 186.5 132 176 132Z" fill="#339af0"/>
    <circle cx="176" cy="340" r="24" fill="white"/>
    <rect x="80" y="176" width="192" height="8" rx="4" fill="white" opacity="0.7"/>
    <rect x="112" y="200" width="128" height="8" rx="4" fill="white" opacity="0.5"/>
  </g>
</svg>