<svg width="512" height="512" viewBox="0 0 512 512" fill="none" xmlns="http://www.w3.org/2000/svg">
  <path d="M256 88C283.062 88 305.812 99.625 321.75 118.375C337.688 137.125 344 162.938 336 186.875L304 286.75C302.5 291.5 299 295.375 294.5 297.875C290 300.375 284.75 301.625 279.5 301.625H232.5C227.25 301.625 222 300.375 217.5 297.875C213 295.375 209.5 291.5 208 286.75L176 186.875C168 162.938 174.312 137.125 190.25 118.375C206.188 99.625 228.938 88 256 88Z" fill="black"/>
  <circle cx="256" cy="340" r="24" fill="black"/>
  <rect x="160" y="176" width="192" height="8" rx="4" fill="black" opacity="0.7"/>
  <rect x="192" y="200" width="128" height="8" rx="4" fill="black" opacity="0.5"/>
</svg>